<svg width="800" height="600" xmlns="http://www.w3.org/2000/svg">
 <g id="Layer_1">
  <title>Layer 1</title>
  <line id="svg_29" y2="552.31015" x2="64.61538" y1="79.99995" x1="64.61538" stroke-width="15" stroke="#000" fill="none"/>
  <line id="svg_30" y2="543.07688" x2="70.58783" y1="543.07688" x1="723.07692" stroke-width="15" stroke="#000" fill="none"/>
  <line id="svg_31" y2="68.98185" x2="721.53846" y1="544.61534" x1="721.53846" stroke-width="15" stroke="#000" fill="none"/>
  <line id="svg_32" y2="73.84611" x2="727.80547" y1="73.84611" x1="58.46154" stroke-width="15" stroke="#000" fill="none"/>
  <line id="svg_33" y2="307.70053" x2="141.53846" y1="164.61534" x1="141.53846" stroke-width="15" stroke="#000" fill="none"/>
  <line id="svg_34" y2="307.69226" x2="277.2374" y1="307.69226" x1="141.53846" stroke-width="15" stroke="#000" fill="none"/>
  <line id="svg_35" y2="164.61534" x2="290.97811" y1="164.61534" x1="149.23077" stroke-width="15" stroke="#000" fill="none"/>
  <line id="svg_36" y2="303.15464" x2="292.30769" y1="166.1538" x1="292.30769" stroke-width="15" stroke="#000" fill="none"/>
  <line id="svg_38" y2="314.0814" x2="429.23077" y1="163.07688" x1="429.23077" stroke-width="15" stroke="#000" fill="none"/>
  <line id="svg_39" y2="307.69226" x2="570.77828" y1="307.69226" x1="440" stroke-width="15" stroke="#000" fill="none"/>
  <line id="svg_40" y2="156.24739" x2="570.76923" y1="298.46149" x1="570.76923" stroke-width="15" stroke="#000" fill="none"/>
  <line id="svg_41" y2="158.46149" x2="569.24038" y1="158.46149" x1="446.15385" stroke-width="15" stroke="#000" fill="none"/>
  <line id="svg_43" y2="384.61534" x2="309.23077" y1="323.07688" x1="326.15385" stroke-width="15" stroke="#000" fill="none"/>
  <line id="svg_44" y2="390.76918" x2="369.23077" y1="332.30765" x1="381.53846" stroke-width="15" stroke="#000" fill="none"/>
  <line id="svg_45" y2="461.53841" x2="583.07692" y1="458.46149" x1="252.30769" stroke-width="15" stroke="#000" fill="none"/>
  <line stroke="#000" id="svg_46" y2="279.99995" x2="243.07698" y1="193.84611" x1="166.15419" stroke-width="15" fill="none"/>
  <line id="svg_47" y2="275.38457" x2="540" y1="189.23072" x1="460" stroke-width="15" stroke="#000" fill="none"/>
  <line id="svg_48" y2="392.30765" x2="321.53846" y1="392.30765" x1="296.92308" stroke-width="15" stroke="#000" fill="none"/>
  <line id="svg_49" y2="396.92303" x2="392.30769" y1="398.46149" x1="361.53846" stroke-width="15" stroke="#000" fill="none"/>
  <line id="svg_50" y2="506.1538" x2="647.69231" y1="466.1538" x1="244.61538" stroke-width="15" stroke="#000" fill="none"/>
 </g>
</svg>